<?xml version="1.0" encoding="UTF-8" standalone="no"?>
<svg
   viewBox="0 0 70 24"
   version="1.1"
   id="svg25"
   sodipodi:docname="logo.svg"
   width="70"
   height="24"
   inkscape:version="1.1.1 (3bf5ae0d25, 2021-09-20)"
   xmlns:inkscape="http://www.inkscape.org/namespaces/inkscape"
   xmlns:sodipodi="http://sodipodi.sourceforge.net/DTD/sodipodi-0.dtd"
   xmlns="http://www.w3.org/2000/svg"
   xmlns:svg="http://www.w3.org/2000/svg"
   xmlns:rdf="http://www.w3.org/1999/02/22-rdf-syntax-ns#"
   xmlns:cc="http://creativecommons.org/ns#"
   xmlns:dc="http://purl.org/dc/elements/1.1/"
   xmlns:figma="http://www.figma.com/figma/ns">
  <sodipodi:namedview
     id="namedview27"
     pagecolor="#ffffff"
     bordercolor="#666666"
     borderopacity="1.0"
     inkscape:pageshadow="2"
     inkscape:pageopacity="0.0"
     inkscape:pagecheckerboard="0"
     showgrid="false"
     inkscape:zoom="9.706422"
     inkscape:cx="41.467391"
     inkscape:cy="12.002363"
     inkscape:window-width="1920"
     inkscape:window-height="1009"
     inkscape:window-x="-8"
     inkscape:window-y="-8"
     inkscape:window-maximized="1"
     inkscape:current-layer="g16" />
  <title
     id="title2">Logo</title>
  <g
     transform="translate(-1468.7637,-25.550095)"
     figma:type="canvas"
     id="g16">
    <text
       xml:space="preserve"
       style="font-style:normal;font-variant:normal;font-weight:normal;font-stretch:normal;font-size:34.6667px;line-height:1.25;font-family:'Cambria Math';-inkscape-font-specification:'Cambria Math, Normal';font-variant-ligatures:normal;font-variant-caps:normal;font-variant-numeric:normal;font-variant-east-asian:normal;fill:#000000;fill-opacity:1;stroke:none"
       x="1471.6484"
       y="49.142723"
       id="text1043"><tspan
         sodipodi:role="line"
         id="tspan1041"
         x="1471.6484"
         y="49.142723">DGD</tspan></text>
  </g>
  <defs
     id="defs23">
    <path
       id="b"
       d="M 22.735,23.171 C 23.018,23.494 22.788,24 22.359,24 h -5.907 c -0.285,0 -0.556,-0.121 -0.745,-0.333 L 6.293,13.141 v 10.36 c 0,0.276 -0.224,0.5 -0.5,0.5 H 0.5 c -0.276,0 -0.5,-0.224 -0.5,-0.5 v -23 c 0,-0.276 0.224,-0.5 0.5,-0.5 h 5.293 c 0.276,0 0.5,0.224 0.5,0.5 v 9.815 l 9.141,-9.99 c 0.19,-0.207 0.457,-0.325 0.738,-0.325 h 5.762 c 0.437,0 0.664,0.521 0.366,0.841 l -9.851,10.563 10.287,11.767 z" />
    <path
       id="c"
       d="m 45.991,24 c -0.199,0 -0.38,-0.118 -0.459,-0.301 L 43.508,19.03 h -10.67 l -2.024,4.669 C 30.735,23.882 30.555,24 30.355,24 h -5.212 c -0.366,0 -0.608,-0.381 -0.453,-0.712 l 10.782,-23 C 35.554,0.112 35.731,0 35.925,0 h 4.358 c 0.194,0 0.37,0.112 0.453,0.287 l 10.815,23 C 51.707,23.619 51.465,24 51.099,24 Z M 34.856,14.332 h 6.635 l -3.317,-7.694 -3.317,7.694 z" />
    <path
       id="d"
       d="m 55.525,24 c -0.276,0 -0.5,-0.224 -0.5,-0.5 v -23 c 0,-0.276 0.224,-0.5 0.5,-0.5 h 5.293 c 0.276,0 0.5,0.224 0.5,0.5 v 18.428 h 9.759 c 0.276,0 0.5,0.224 0.5,0.5 V 23.5 c 0,0.276 -0.224,0.5 -0.5,0.5 z" />
    <path
       id="e"
       d="m 75.279,0.5 c 0,-0.276 0.224,-0.5 0.5,-0.5 h 9.315 c 2.667,0 4.959,0.477 6.874,1.43 1.938,0.953 3.42,2.338 4.446,4.153 1.026,1.793 1.539,3.926 1.539,6.4 0,2.496 -0.513,4.652 -1.539,6.468 -1.003,1.793 -2.474,3.166 -4.412,4.119 C 90.087,23.523 87.784,24 85.094,24 h -9.315 c -0.276,0 -0.5,-0.224 -0.5,-0.5 z m 9.37,18.462 c 2.371,0 4.138,-0.579 5.301,-1.736 1.163,-1.157 1.744,-2.905 1.744,-5.242 C 91.694,9.646 91.113,7.91 89.95,6.775 88.787,5.618 87.02,5.039 84.649,5.039 h -3.078 v 13.923 z" />
    <path
       id="f"
       d="m 102.913,24 c -0.276,0 -0.5,-0.224 -0.5,-0.5 v -23 c 0,-0.276 0.224,-0.5 0.5,-0.5 h 5.293 c 0.276,0 0.5,0.224 0.5,0.5 v 23 c 0,0.276 -0.224,0.5 -0.5,0.5 z" />
  </defs>
  <metadata
     id="metadata3767">
    <rdf:RDF>
      <cc:Work
         rdf:about="">
        <dc:title>Logo</dc:title>
      </cc:Work>
    </rdf:RDF>
  </metadata>
</svg>
